<svg xmlns="http://www.w3.org/2000/svg" width="1920" height="1080"><path d="M1016,539L584,557L935,830Z" fill="#fe893b" stroke="#fe893b" stroke-width="1.51"/><path d="M584,557L657,825L935,830Z" fill="#fe873b" stroke="#fe873b" stroke-width="1.51"/><path d="M1016,539L656,206L584,557Z" fill="#fe9e43" stroke="#fe9e43" stroke-width="1.51"/><path d="M1016,539L969,147L656,206Z" fill="#fea044" stroke="#fea044" stroke-width="1.51"/><path d="M1016,539L1274,225L969,147Z" fill="#fe933f" stroke="#fe933f" stroke-width="1.51"/><path d="M1342,950L1329,506L1016,539Z" fill="#fd6d31" stroke="#fd6d31" stroke-width="1.51"/><path d="M584,557L330,922L657,825Z" fill="#ff8e3f" stroke="#ff8e3f" stroke-width="1.51"/><path d="M657,825L659,1257L935,830Z" fill="#f97434" stroke="#f97434" stroke-width="1.51"/><path d="M239,587L330,922L584,557Z" fill="#ff9d49" stroke="#ff9d49" stroke-width="1.51"/><path d="M217,207L239,587L584,557Z" fill="#ffb152" stroke="#ffb152" stroke-width="1.51"/><path d="M935,830L1342,950L1016,539Z" fill="#fd6d31" stroke="#fd6d31" stroke-width="1.51"/><path d="M1281,1212L1342,950L935,830Z" fill="#f6542a" stroke="#f6542a" stroke-width="1.51"/><path d="M1329,506L1274,225L1016,539Z" fill="#fe8339" stroke="#fe8339" stroke-width="1.51"/><path d="M330,922L659,1257L657,825Z" fill="#f97d37" stroke="#f97d37" stroke-width="1.51"/><path d="M659,1257L943,1295L935,830Z" fill="#f2662e" stroke="#f2662e" stroke-width="1.51"/><path d="M621,-121L217,207L656,206Z" fill="#ffbf5a" stroke="#ffbf5a" stroke-width="1.51"/><path d="M656,206L217,207L584,557Z" fill="#feb24e" stroke="#feb24e" stroke-width="1.51"/><path d="M943,1295L1281,1212L935,830Z" fill="#f25929" stroke="#f25929" stroke-width="1.51"/><path d="M969,147L621,-121L656,206Z" fill="#ffb453" stroke="#ffb453" stroke-width="1.51"/><path d="M1005,-157L621,-121L969,147Z" fill="#ffb659" stroke="#ffb659" stroke-width="1.51"/><path d="M330,922L208,1175L659,1257Z" fill="#f67f3c" stroke="#f67f3c" stroke-width="1.51"/><path d="M-105,917L208,1175L330,922Z" fill="#fc924c" stroke="#fc924c" stroke-width="1.51"/><path d="M-105,917L330,922L239,587Z" fill="#ff9d51" stroke="#ff9d51" stroke-width="1.51"/><path d="M1274,225L1005,-157L969,147Z" fill="#ffa34c" stroke="#ffa34c" stroke-width="1.51"/><path d="M1342,950L1610,871L1329,506Z" fill="#fa532a" stroke="#fa532a" stroke-width="1.51"/><path d="M1329,506L1672,223L1274,225Z" fill="#fc7c37" stroke="#fc7c37" stroke-width="1.51"/><path d="M1611,1255L1610,871L1342,950Z" fill="#ef3722" stroke="#ef3722" stroke-width="1.51"/><path d="M217,207L-43,526L239,587Z" fill="#ffbb5e" stroke="#ffbb5e" stroke-width="1.51"/><path d="M1274,225L1360,-151L1005,-157Z" fill="#ffa150" stroke="#ffa150" stroke-width="1.51"/><path d="M1610,871L1686,535L1329,506Z" fill="#f75d2c" stroke="#f75d2c" stroke-width="1.51"/><path d="M655,1618L947,1551L659,1257Z" fill="#dc6235" stroke="#dc6235" stroke-width="1.51"/><path d="M659,1257L947,1551L943,1295Z" fill="#e46031" stroke="#e46031" stroke-width="1.51"/><path d="M943,1295L947,1551L1281,1212Z" fill="#e3512d" stroke="#e3512d" stroke-width="1.51"/><path d="M-43,526L-105,917L239,587Z" fill="#ffac5d" stroke="#ffac5d" stroke-width="1.51"/><path d="M1686,535L1672,223L1329,506Z" fill="#f77031" stroke="#f77031" stroke-width="1.51"/><path d="M1607,-132L1360,-151L1274,225Z" fill="#ff944b" stroke="#ff944b" stroke-width="1.51"/><path d="M621,-121L287,-185L217,207Z" fill="#ffce6a" stroke="#ffce6a" stroke-width="1.51"/><path d="M217,207L-54,160L-43,526Z" fill="#ffc668" stroke="#ffc668" stroke-width="1.51"/><path d="M553,-498L287,-185L621,-121Z" fill="#ffd174" stroke="#ffd174" stroke-width="1.51"/><path d="M553,-498L621,-121L990,-520Z" fill="#ffc974" stroke="#ffc974" stroke-width="1.51"/><path d="M-43,526L-412,517L-105,917Z" fill="#ffb469" stroke="#ffb469" stroke-width="1.51"/><path d="M-58,-168L-54,160L217,207Z" fill="#ffd575" stroke="#ffd575" stroke-width="1.51"/><path d="M322,1539L659,1257L208,1175Z" fill="#e9793f" stroke="#e9793f" stroke-width="1.51"/><path d="M322,1539L655,1618L659,1257Z" fill="#dd6d3a" stroke="#dd6d3a" stroke-width="1.51"/><path d="M1610,871L1989,922L1686,535Z" fill="#ef4225" stroke="#ef4225" stroke-width="1.51"/><path d="M1281,1212L1611,1255L1342,950Z" fill="#ee3422" stroke="#ee3422" stroke-width="1.51"/><path d="M1309,1615L1611,1255L1281,1212Z" fill="#e02f26" stroke="#e02f26" stroke-width="1.51"/><path d="M-108,1251L322,1539L208,1175Z" fill="#eb864c" stroke="#eb864c" stroke-width="1.51"/><path d="M-105,917L-108,1251L208,1175Z" fill="#f99051" stroke="#f99051" stroke-width="1.51"/><path d="M947,1551L1309,1615L1281,1212Z" fill="#db432c" stroke="#db432c" stroke-width="1.51"/><path d="M655,1618L1309,1615L947,1551Z" fill="#ce5231" stroke="#ce5231" stroke-width="1.51"/><path d="M1672,223L1607,-132L1274,225Z" fill="#fb8740" stroke="#fb8740" stroke-width="1.51"/><path d="M287,-185L-58,-168L217,207Z" fill="#fed977" stroke="#fed977" stroke-width="1.51"/><path d="M990,-520L621,-121L1005,-157Z" fill="#ffbe69" stroke="#ffbe69" stroke-width="1.51"/><path d="M990,-520L1005,-157L1247,-466Z" fill="#ffb76b" stroke="#ffb76b" stroke-width="1.51"/><path d="M1247,-466L1005,-157L1360,-151Z" fill="#ffaa60" stroke="#ffaa60" stroke-width="1.51"/><path d="M-386,198L-412,517L-43,526Z" fill="#ffc776" stroke="#ffc776" stroke-width="1.51"/><path d="M-8,-493L-58,-168L287,-185Z" fill="#ffe38b" stroke="#ffe38b" stroke-width="1.51"/><path d="M1616,-558L1247,-466L1360,-151Z" fill="#ffa264" stroke="#ffa264" stroke-width="1.51"/><path d="M1611,1255L1989,922L1610,871Z" fill="#e9291f" stroke="#e9291f" stroke-width="1.51"/><path d="M1686,535L2023,473L1672,223Z" fill="#ef672f" stroke="#ef672f" stroke-width="1.51"/><path d="M1672,223L1976,202L1607,-132Z" fill="#f47e3c" stroke="#f47e3c" stroke-width="1.51"/><path d="M1932,1265L1989,922L1611,1255Z" fill="#dd171e" stroke="#dd171e" stroke-width="1.51"/><path d="M-386,198L-43,526L-54,160Z" fill="#ffcb72" stroke="#ffcb72" stroke-width="1.51"/><path d="M-105,917L-454,1201L-108,1251Z" fill="#fb965c" stroke="#fb965c" stroke-width="1.51"/><path d="M1989,922L2023,473L1686,535Z" fill="#e8502b" stroke="#e8502b" stroke-width="1.51"/><path d="M2023,473L1976,202L1672,223Z" fill="#eb6d34" stroke="#eb6d34" stroke-width="1.51"/><path d="M1607,-132L1616,-558L1360,-151Z" fill="#ff9a59" stroke="#ff9a59" stroke-width="1.51"/><path d="M-445,-114L-386,198L-54,160Z" fill="#ffdb86" stroke="#ffdb86" stroke-width="1.51"/><path d="M-445,-114L-466,833L-412,517Z" fill="#ffcb7f" stroke="#ffcb7f" stroke-width="1.51"/><path d="M-412,517L-466,833L-105,917Z" fill="#ffaf6d" stroke="#ffaf6d" stroke-width="1.51"/><path d="M1714,1570L1932,1265L1611,1255Z" fill="#d41121" stroke="#d41121" stroke-width="1.51"/><path d="M553,-498L200,-517L287,-185Z" fill="#ffdc85" stroke="#ffdc85" stroke-width="1.51"/><path d="M-58,-168L-445,-114L-54,160Z" fill="#ffe189" stroke="#ffe189" stroke-width="1.51"/><path d="M990,-520L200,-517L553,-498Z" fill="#ffd381" stroke="#ffd381" stroke-width="1.51"/><path d="M1309,1615L1714,1570L1611,1255Z" fill="#d22225" stroke="#d22225" stroke-width="1.51"/><path d="M-423,1604L-140,1578L-108,1251Z" fill="#e28b60" stroke="#e28b60" stroke-width="1.51"/><path d="M-108,1251L-140,1578L322,1539Z" fill="#e28553" stroke="#e28553" stroke-width="1.51"/><path d="M322,1539L-140,1578L655,1618Z" fill="#d37747" stroke="#d37747" stroke-width="1.51"/><path d="M-466,833L-454,1201L-105,917Z" fill="#ffa066" stroke="#ffa066" stroke-width="1.51"/><path d="M200,-517L-8,-493L287,-185Z" fill="#ffe48f" stroke="#ffe48f" stroke-width="1.51"/><path d="M990,-520L1616,-558L200,-517Z" fill="#ffc47a" stroke="#ffc47a" stroke-width="1.51"/><path d="M1247,-466L1616,-558L990,-520Z" fill="#ffad70" stroke="#ffad70" stroke-width="1.51"/><path d="M2019,-220L1616,-558L1607,-132Z" fill="#f89256" stroke="#f89256" stroke-width="1.51"/><path d="M-386,198L-445,-114L-412,517Z" fill="#ffd785" stroke="#ffd785" stroke-width="1.51"/><path d="M-388,-504L-445,-114L-58,-168Z" fill="#ffeb9e" stroke="#ffeb9e" stroke-width="1.51"/><path d="M1976,202L2019,-220L1607,-132Z" fill="#ef8647" stroke="#ef8647" stroke-width="1.51"/><path d="M2322,-90L2019,-220L1976,202Z" fill="#e3804a" stroke="#e3804a" stroke-width="1.51"/><path d="M2396,1176L2404,861L1989,922Z" fill="#cb2126" stroke="#cb2126" stroke-width="1.51"/><path d="M2404,861L2397,500L2023,473Z" fill="#d14c30" stroke="#d14c30" stroke-width="1.51"/><path d="M2023,473L2411,241L1976,202Z" fill="#de6736" stroke="#de6736" stroke-width="1.51"/><path d="M1714,1570L2040,1559L1932,1265Z" fill="#c60824" stroke="#c60824" stroke-width="1.51"/><path d="M2333,1592L2040,1559L1714,1570Z" fill="#b40325" stroke="#b40325" stroke-width="1.51"/><path d="M-454,1201L-423,1604L-108,1251Z" fill="#ed9164" stroke="#ed9164" stroke-width="1.51"/><path d="M-140,1578L-423,1604L655,1618Z" fill="#d38053" stroke="#d38053" stroke-width="1.51"/><path d="M2404,861L2023,473L1989,922Z" fill="#dc3d2b" stroke="#dc3d2b" stroke-width="1.51"/><path d="M2396,1176L1989,922L1932,1265Z" fill="#d21322" stroke="#d21322" stroke-width="1.51"/><path d="M1616,-558L-388,-504L200,-517Z" fill="#ffd987" stroke="#ffd987" stroke-width="1.51"/><path d="M200,-517L-388,-504L-8,-493Z" fill="#ffeda3" stroke="#ffeda3" stroke-width="1.51"/><path d="M-8,-493L-388,-504L-58,-168Z" fill="#ffec9f" stroke="#ffec9f" stroke-width="1.51"/><path d="M2397,500L2411,241L2023,473Z" fill="#d25d35" stroke="#d25d35" stroke-width="1.51"/><path d="M2404,861L2411,241L2397,500Z" fill="#c75232" stroke="#c75232" stroke-width="1.51"/><path d="M2040,1559L2396,1176L1932,1265Z" fill="#c40525" stroke="#c40525" stroke-width="1.51"/><path d="M2411,241L2322,-90L1976,202Z" fill="#d77240" stroke="#d77240" stroke-width="1.51"/><path d="M2019,-220L2057,-563L1616,-558Z" fill="#f29362" stroke="#f29362" stroke-width="1.51"/><path d="M2390,-441L2057,-563L2019,-220Z" fill="#e38b62" stroke="#e38b62" stroke-width="1.51"/><path d="M2040,1559L2333,1592L2396,1176Z" fill="#b30026" stroke="#b30026" stroke-width="1.51"/><path d="M1309,1615L2333,1592L1714,1570Z" fill="#be0b23" stroke="#be0b23" stroke-width="1.51"/><path d="M2322,-90L2390,-441L2019,-220Z" fill="#da8457" stroke="#da8457" stroke-width="1.51"/><path d="M2411,241L2390,-441L2322,-90Z" fill="#cd7b4e" stroke="#cd7b4e" stroke-width="1.51"/></svg>