<svg xmlns="http://www.w3.org/2000/svg" width="1440" height="900"><path d="M762,449L438,463L701,667Z" fill="#4ab3c2" stroke="#4ab3c2" stroke-width="1.51"/><path d="M438,463L493,664L701,667Z" fill="#51b1c0" stroke="#51b1c0" stroke-width="1.51"/><path d="M762,449L492,200L438,463Z" fill="#61c0c0" stroke="#61c0c0" stroke-width="1.51"/><path d="M762,449L727,155L492,200Z" fill="#64c1c0" stroke="#64c1c0" stroke-width="1.51"/><path d="M762,449L956,214L727,155Z" fill="#5bb9c0" stroke="#5bb9c0" stroke-width="1.51"/><path d="M1006,758L996,424L762,449Z" fill="#31a1c2" stroke="#31a1c2" stroke-width="1.51"/><path d="M438,463L247,737L493,664Z" fill="#63b4be" stroke="#63b4be" stroke-width="1.51"/><path d="M493,664L494,988L701,667Z" fill="#4c9ebb" stroke="#4c9ebb" stroke-width="1.51"/><path d="M179,485L247,737L438,463Z" fill="#76bfbe" stroke="#76bfbe" stroke-width="1.51"/><path d="M163,200L179,485L438,463Z" fill="#86cdbc" stroke="#86cdbc" stroke-width="1.51"/><path d="M701,667L1006,758L762,449Z" fill="#30a1c2" stroke="#30a1c2" stroke-width="1.51"/><path d="M961,954L1006,758L701,667Z" fill="#2b8bbb" stroke="#2b8bbb" stroke-width="1.51"/><path d="M996,424L956,214L762,449Z" fill="#4aaec2" stroke="#4aaec2" stroke-width="1.51"/><path d="M247,737L494,988L493,664Z" fill="#5ea1b8" stroke="#5ea1b8" stroke-width="1.51"/><path d="M494,988L707,1016L701,667Z" fill="#448eb5" stroke="#448eb5" stroke-width="1.51"/><path d="M466,-46L163,200L492,200Z" fill="#99d6b9" stroke="#99d6b9" stroke-width="1.51"/><path d="M492,200L163,200L438,463Z" fill="#82ccbc" stroke="#82ccbc" stroke-width="1.51"/><path d="M707,1016L961,954L701,667Z" fill="#3487b7" stroke="#3487b7" stroke-width="1.51"/><path d="M727,155L466,-46L492,200Z" fill="#8acfbb" stroke="#8acfbb" stroke-width="1.51"/><path d="M753,-73L466,-46L727,155Z" fill="#93d1bc" stroke="#93d1bc" stroke-width="1.51"/><path d="M247,737L156,926L494,988Z" fill="#6e9bb2" stroke="#6e9bb2" stroke-width="1.51"/><path d="M-79,732L156,926L247,737Z" fill="#87aeb5" stroke="#87aeb5" stroke-width="1.51"/><path d="M-79,732L247,737L179,485Z" fill="#89bebb" stroke="#89bebb" stroke-width="1.51"/><path d="M956,214L753,-73L727,155Z" fill="#7bc3be" stroke="#7bc3be" stroke-width="1.51"/><path d="M1006,758L1208,698L996,424Z" fill="#2590be" stroke="#2590be" stroke-width="1.51"/><path d="M996,424L1254,212L956,214Z" fill="#53a6bc" stroke="#53a6bc" stroke-width="1.51"/><path d="M1208,986L1208,698L1006,758Z" fill="#2376b3" stroke="#2376b3" stroke-width="1.51"/><path d="M163,200L-33,440L179,485Z" fill="#9ad4bb" stroke="#9ad4bb" stroke-width="1.51"/><path d="M956,214L1020,-68L753,-73Z" fill="#85c1bc" stroke="#85c1bc" stroke-width="1.51"/><path d="M1208,698L1264,446L996,424Z" fill="#3090bc" stroke="#3090bc" stroke-width="1.51"/><path d="M491,1259L710,1208L494,988Z" fill="#4e78a7" stroke="#4e78a7" stroke-width="1.51"/><path d="M494,988L710,1208L707,1016Z" fill="#487cae" stroke="#487cae" stroke-width="1.51"/><path d="M707,1016L710,1208L961,954Z" fill="#3976af" stroke="#3976af" stroke-width="1.51"/><path d="M-33,440L-79,732L179,485Z" fill="#94c9bc" stroke="#94c9bc" stroke-width="1.51"/><path d="M1264,446L1254,212L996,424Z" fill="#4799ba" stroke="#4799ba" stroke-width="1.51"/><path d="M1205,-54L1020,-68L956,214Z" fill="#80b5ba" stroke="#80b5ba" stroke-width="1.51"/><path d="M466,-46L215,-94L163,200Z" fill="#b3e0b7" stroke="#b3e0b7" stroke-width="1.51"/><path d="M163,200L-40,165L-33,440Z" fill="#a9dbb8" stroke="#a9dbb8" stroke-width="1.51"/><path d="M415,-328L215,-94L466,-46Z" fill="#bae3b6" stroke="#bae3b6" stroke-width="1.51"/><path d="M415,-328L466,-46L743,-345Z" fill="#b3deba" stroke="#b3deba" stroke-width="1.51"/><path d="M-33,440L-309,432L-79,732Z" fill="#a1cfbb" stroke="#a1cfbb" stroke-width="1.51"/><path d="M-43,-81L-40,165L163,200Z" fill="#c0e6b5" stroke="#c0e6b5" stroke-width="1.51"/><path d="M241,1199L494,988L156,926Z" fill="#708cac" stroke="#708cac" stroke-width="1.51"/><path d="M241,1199L491,1259L494,988Z" fill="#5f7da6" stroke="#5f7da6" stroke-width="1.51"/><path d="M1208,698L1492,737L1264,446Z" fill="#297ab4" stroke="#297ab4" stroke-width="1.51"/><path d="M961,954L1208,986L1006,758Z" fill="#2374b2" stroke="#2374b2" stroke-width="1.51"/><path d="M981,1256L1208,986L961,954Z" fill="#2a65ac" stroke="#2a65ac" stroke-width="1.51"/><path d="M-81,983L241,1199L156,926Z" fill="#8694ab" stroke="#8694ab" stroke-width="1.51"/><path d="M-79,732L-81,983L156,926Z" fill="#8ea6b1" stroke="#8ea6b1" stroke-width="1.51"/><path d="M710,1208L981,1256L961,954Z" fill="#3469aa" stroke="#3469aa" stroke-width="1.51"/><path d="M491,1259L981,1256L710,1208Z" fill="#366c9d" stroke="#366c9d" stroke-width="1.51"/><path d="M1254,212L1205,-54L956,214Z" fill="#6fa8b8" stroke="#6fa8b8" stroke-width="1.51"/><path d="M215,-94L-43,-81L163,200Z" fill="#c7e9b4" stroke="#c7e9b4" stroke-width="1.51"/><path d="M743,-345L466,-46L753,-73Z" fill="#a4d7bb" stroke="#a4d7bb" stroke-width="1.51"/><path d="M743,-345L753,-73L935,-305Z" fill="#a3d0bc" stroke="#a3d0bc" stroke-width="1.51"/><path d="M935,-305L753,-73L1020,-68Z" fill="#99c8bb" stroke="#99c8bb" stroke-width="1.51"/><path d="M-290,194L-309,432L-33,440Z" fill="#b0dcbd" stroke="#b0dcbd" stroke-width="1.51"/><path d="M-6,-325L-43,-81L215,-94Z" fill="#dbf0b3" stroke="#dbf0b3" stroke-width="1.51"/><path d="M1212,-374L935,-305L1020,-68Z" fill="#9dbfba" stroke="#9dbfba" stroke-width="1.51"/><path d="M1208,986L1492,737L1208,698Z" fill="#2368ad" stroke="#2368ad" stroke-width="1.51"/><path d="M1264,446L1517,400L1254,212Z" fill="#4a8bb3" stroke="#4a8bb3" stroke-width="1.51"/><path d="M1254,212L1482,196L1205,-54Z" fill="#6f98b1" stroke="#6f98b1" stroke-width="1.51"/><path d="M1449,994L1492,737L1208,986Z" fill="#2459a6" stroke="#2459a6" stroke-width="1.51"/><path d="M-290,194L-33,440L-40,165Z" fill="#b4dfb8" stroke="#b4dfb8" stroke-width="1.51"/><path d="M-79,732L-340,946L-81,983Z" fill="#99a9b1" stroke="#99a9b1" stroke-width="1.51"/><path d="M1492,737L1517,400L1264,446Z" fill="#367ab2" stroke="#367ab2" stroke-width="1.51"/><path d="M1517,400L1482,196L1254,212Z" fill="#5689af" stroke="#5689af" stroke-width="1.51"/><path d="M1205,-54L1212,-374L1020,-68Z" fill="#95b4b6" stroke="#95b4b6" stroke-width="1.51"/><path d="M-334,-41L-290,194L-40,165Z" fill="#cceab9" stroke="#cceab9" stroke-width="1.51"/><path d="M-334,-41L-349,670L-309,432Z" fill="#b3dec5" stroke="#b3dec5" stroke-width="1.51"/><path d="M-309,432L-349,670L-79,732Z" fill="#a2c9c1" stroke="#a2c9c1" stroke-width="1.51"/><path d="M1286,1223L1449,994L1208,986Z" fill="#264ea1" stroke="#264ea1" stroke-width="1.51"/><path d="M415,-328L150,-343L215,-94Z" fill="#ceebb6" stroke="#ceebb6" stroke-width="1.51"/><path d="M-43,-81L-334,-41L-40,165Z" fill="#d7efb3" stroke="#d7efb3" stroke-width="1.51"/><path d="M743,-345L150,-343L415,-328Z" fill="#bde3c0" stroke="#bde3c0" stroke-width="1.51"/><path d="M981,1256L1286,1223L1208,986Z" fill="#2854a0" stroke="#2854a0" stroke-width="1.51"/><path d="M-317,1248L-105,1228L-81,983Z" fill="#958fa4" stroke="#958fa4" stroke-width="1.51"/><path d="M-81,983L-105,1228L241,1199Z" fill="#8b8ca6" stroke="#8b8ca6" stroke-width="1.51"/><path d="M241,1199L-105,1228L491,1259Z" fill="#738099" stroke="#738099" stroke-width="1.51"/><path d="M-349,670L-340,946L-79,732Z" fill="#9db7bc" stroke="#9db7bc" stroke-width="1.51"/><path d="M150,-343L-6,-325L215,-94Z" fill="#dcf2b5" stroke="#dcf2b5" stroke-width="1.51"/><path d="M743,-345L1212,-374L150,-343Z" fill="#abd9c6" stroke="#abd9c6" stroke-width="1.51"/><path d="M935,-305L1212,-374L743,-345Z" fill="#a2c8c4" stroke="#a2c8c4" stroke-width="1.51"/><path d="M1514,-120L1212,-374L1205,-54Z" fill="#94a5af" stroke="#94a5af" stroke-width="1.51"/><path d="M-290,194L-334,-41L-309,432Z" fill="#c2e6c1" stroke="#c2e6c1" stroke-width="1.51"/><path d="M-291,-333L-334,-41L-43,-81Z" fill="#e9f7b6" stroke="#e9f7b6" stroke-width="1.51"/><path d="M1482,196L1514,-120L1205,-54Z" fill="#8298ad" stroke="#8298ad" stroke-width="1.51"/><path d="M1741,-22L1514,-120L1482,196Z" fill="#8089a8" stroke="#8089a8" stroke-width="1.51"/><path d="M1797,927L1803,691L1492,737Z" fill="#245199" stroke="#245199" stroke-width="1.51"/><path d="M1803,691L1797,420L1517,400Z" fill="#346a9f" stroke="#346a9f" stroke-width="1.51"/><path d="M1517,400L1808,225L1482,196Z" fill="#577ba9" stroke="#577ba9" stroke-width="1.51"/><path d="M1286,1223L1530,1214L1449,994Z" fill="#254098" stroke="#254098" stroke-width="1.51"/><path d="M1750,1239L1530,1214L1286,1223Z" fill="#203489" stroke="#203489" stroke-width="1.51"/><path d="M-340,946L-317,1248L-81,983Z" fill="#9a98af" stroke="#9a98af" stroke-width="1.51"/><path d="M-105,1228L-317,1248L491,1259Z" fill="#818596" stroke="#818596" stroke-width="1.51"/><path d="M1803,691L1517,400L1492,737Z" fill="#3267aa" stroke="#3267aa" stroke-width="1.51"/><path d="M1797,927L1492,737L1449,994Z" fill="#264ca0" stroke="#264ca0" stroke-width="1.51"/><path d="M1212,-374L-291,-333L150,-343Z" fill="#c6e8c0" stroke="#c6e8c0" stroke-width="1.51"/><path d="M150,-343L-291,-333L-6,-325Z" fill="#ebf7ba" stroke="#ebf7ba" stroke-width="1.51"/><path d="M-6,-325L-291,-333L-43,-81Z" fill="#ebf8b2" stroke="#ebf8b2" stroke-width="1.51"/><path d="M1797,420L1808,225L1517,400Z" fill="#47729e" stroke="#47729e" stroke-width="1.51"/><path d="M1803,691L1808,225L1797,420Z" fill="#336996" stroke="#336996" stroke-width="1.51"/><path d="M1530,1214L1797,927L1449,994Z" fill="#263c98" stroke="#263c98" stroke-width="1.51"/><path d="M1808,225L1741,-22L1482,196Z" fill="#697e9e" stroke="#697e9e" stroke-width="1.51"/><path d="M1514,-120L1542,-378L1212,-374Z" fill="#9a9eb1" stroke="#9a9eb1" stroke-width="1.51"/><path d="M1792,-286L1542,-378L1514,-120Z" fill="#968fa6" stroke="#968fa6" stroke-width="1.51"/><path d="M1530,1214L1750,1239L1797,927Z" fill="#203089" stroke="#203089" stroke-width="1.51"/><path d="M981,1256L1750,1239L1286,1223Z" fill="#1f418e" stroke="#1f418e" stroke-width="1.51"/><path d="M1741,-22L1792,-286L1514,-120Z" fill="#8a899c" stroke="#8a899c" stroke-width="1.51"/><path d="M1808,225L1792,-286L1741,-22Z" fill="#798192" stroke="#798192" stroke-width="1.51"/></svg>