<svg xmlns="http://www.w3.org/2000/svg" width="1920" height="1080"><path d="M979,477L1246,166L1011,229Z" fill="#fbecb2" stroke="#fbecb2" stroke-width="1.51"/><path d="M979,477L1365,607L1246,166Z" fill="#f6f2c9" stroke="#f6f2c9" stroke-width="1.51"/><path d="M1365,607L1615,561L1246,166Z" fill="#e7edcf" stroke="#e7edcf" stroke-width="1.51"/><path d="M1246,166L1234,-110L1011,229Z" fill="#fad6a6" stroke="#fad6a6" stroke-width="1.51"/><path d="M1676,193L1234,-110L1246,166Z" fill="#edceac" stroke="#edceac" stroke-width="1.51"/><path d="M1615,561L1676,193L1246,166Z" fill="#e0e0c0" stroke="#e0e0c0" stroke-width="1.51"/><path d="M1365,607L1663,882L1615,561Z" fill="#d1eae6" stroke="#d1eae6" stroke-width="1.51"/><path d="M979,477L1292,896L1365,607Z" fill="#ecf7e5" stroke="#ecf7e5" stroke-width="1.51"/><path d="M979,477L1027,952L1292,896Z" fill="#eaf6e8" stroke="#eaf6e8" stroke-width="1.51"/><path d="M592,175L631,554L979,477Z" fill="#ffeaa0" stroke="#ffeaa0" stroke-width="1.51"/><path d="M592,175L979,477L1011,229Z" fill="#ffea9f" stroke="#ffea9f" stroke-width="1.51"/><path d="M631,554L1027,952L979,477Z" fill="#f9f8c8" stroke="#f9f8c8" stroke-width="1.51"/><path d="M1234,-110L993,-208L1011,229Z" fill="#fec994" stroke="#fec994" stroke-width="1.51"/><path d="M993,-208L592,175L1011,229Z" fill="#ffd38a" stroke="#ffd38a" stroke-width="1.51"/><path d="M1292,896L1663,882L1365,607Z" fill="#d1ebf4" stroke="#d1ebf4" stroke-width="1.51"/><path d="M1615,561L2031,220L1676,193Z" fill="#ccd0b9" stroke="#ccd0b9" stroke-width="1.51"/><path d="M1291,1207L1663,882L1292,896Z" fill="#bde1ee" stroke="#bde1ee" stroke-width="1.51"/><path d="M631,554L547,838L1027,952Z" fill="#f3eecb" stroke="#f3eecb" stroke-width="1.51"/><path d="M276,832L547,838L631,554Z" fill="#f7ddb3" stroke="#f7ddb3" stroke-width="1.51"/><path d="M1234,-110L1366,-431L993,-208Z" fill="#f6ad90" stroke="#f6ad90" stroke-width="1.51"/><path d="M1676,193L1693,-221L1234,-110Z" fill="#e3b99f" stroke="#e3b99f" stroke-width="1.51"/><path d="M1930,-98L1693,-221L1676,193Z" fill="#d2ab98" stroke="#d2ab98" stroke-width="1.51"/><path d="M592,175L210,474L631,554Z" fill="#ffd98d" stroke="#ffd98d" stroke-width="1.51"/><path d="M993,-208L578,-186L592,175Z" fill="#ffba75" stroke="#ffba75" stroke-width="1.51"/><path d="M1027,952L1291,1207L1292,896Z" fill="#cbe8eb" stroke="#cbe8eb" stroke-width="1.51"/><path d="M547,838L1008,1184L1027,952Z" fill="#dce8ce" stroke="#dce8ce" stroke-width="1.51"/><path d="M1693,-221L1366,-431L1234,-110Z" fill="#e8a593" stroke="#e8a593" stroke-width="1.51"/><path d="M993,-208L965,-433L578,-186Z" fill="#faa971" stroke="#faa971" stroke-width="1.51"/><path d="M1366,-431L965,-433L993,-208Z" fill="#f4a481" stroke="#f4a481" stroke-width="1.51"/><path d="M1008,1184L1291,1207L1027,952Z" fill="#c7e0de" stroke="#c7e0de" stroke-width="1.51"/><path d="M2050,593L2031,220L1615,561Z" fill="#c0cfc1" stroke="#c0cfc1" stroke-width="1.51"/><path d="M578,-186L322,141L592,175Z" fill="#feba6c" stroke="#feba6c" stroke-width="1.51"/><path d="M2031,220L1930,-98L1676,193Z" fill="#c8b4a0" stroke="#c8b4a0" stroke-width="1.51"/><path d="M1693,-221L1668,-432L1366,-431Z" fill="#d99588" stroke="#d99588" stroke-width="1.51"/><path d="M1663,882L2050,593L1615,561Z" fill="#bedadd" stroke="#bedadd" stroke-width="1.51"/><path d="M2020,929L2050,593L1663,882Z" fill="#a8cde3" stroke="#a8cde3" stroke-width="1.51"/><path d="M1366,-431L553,-552L965,-433Z" fill="#f09d6f" stroke="#f09d6f" stroke-width="1.51"/><path d="M2009,-513L1668,-432L1693,-221Z" fill="#c7847f" stroke="#c7847f" stroke-width="1.51"/><path d="M322,141L210,474L592,175Z" fill="#ffc777" stroke="#ffc777" stroke-width="1.51"/><path d="M1935,1212L2020,929L1663,882Z" fill="#94c5df" stroke="#94c5df" stroke-width="1.51"/><path d="M210,474L276,832L631,554Z" fill="#fdd79c" stroke="#fdd79c" stroke-width="1.51"/><path d="M547,838L579,1296L1008,1184Z" fill="#d3d8be" stroke="#d3d8be" stroke-width="1.51"/><path d="M1291,1207L1708,1256L1663,882Z" fill="#a4d1e5" stroke="#a4d1e5" stroke-width="1.51"/><path d="M1374,1538L1708,1256L1291,1207Z" fill="#96bfdc" stroke="#96bfdc" stroke-width="1.51"/><path d="M937,1604L1374,1538L1291,1207Z" fill="#a1bad3" stroke="#a1bad3" stroke-width="1.51"/><path d="M298,1163L579,1296L547,838Z" fill="#d6c8ad" stroke="#d6c8ad" stroke-width="1.51"/><path d="M322,141L-98,257L210,474Z" fill="#fdb36e" stroke="#fdb36e" stroke-width="1.51"/><path d="M578,-186L225,-187L322,141Z" fill="#fca05b" stroke="#fca05b" stroke-width="1.51"/><path d="M227,-431L225,-187L578,-186Z" fill="#f5874d" stroke="#f5874d" stroke-width="1.51"/><path d="M965,-433L553,-552L578,-186Z" fill="#f3975e" stroke="#f3975e" stroke-width="1.51"/><path d="M2009,-513L553,-552L1366,-431Z" fill="#e19489" stroke="#e19489" stroke-width="1.51"/><path d="M1708,1256L1935,1212L1663,882Z" fill="#90c3de" stroke="#90c3de" stroke-width="1.51"/><path d="M1708,1256L1658,1576L1935,1212Z" fill="#78acd1" stroke="#78acd1" stroke-width="1.51"/><path d="M937,1604L1291,1207L1008,1184Z" fill="#b3cad0" stroke="#b3cad0" stroke-width="1.51"/><path d="M276,832L298,1163L547,838Z" fill="#e6cbaa" stroke="#e6cbaa" stroke-width="1.51"/><path d="M-41,871L298,1163L276,832Z" fill="#e6b89e" stroke="#e6b89e" stroke-width="1.51"/><path d="M2300,931L2372,498L2050,593Z" fill="#9fafc8" stroke="#9fafc8" stroke-width="1.51"/><path d="M2050,593L2372,498L2031,220Z" fill="#b0b6b4" stroke="#b0b6b4" stroke-width="1.51"/><path d="M2031,220L2284,-218L1930,-98Z" fill="#bb918d" stroke="#bb918d" stroke-width="1.51"/><path d="M2300,931L2050,593L2020,929Z" fill="#98b7d9" stroke="#98b7d9" stroke-width="1.51"/><path d="M1668,-432L2009,-513L1366,-431Z" fill="#ca8580" stroke="#ca8580" stroke-width="1.51"/><path d="M1930,-98L2009,-513L1693,-221Z" fill="#c58984" stroke="#c58984" stroke-width="1.51"/><path d="M2284,-218L2009,-513L1930,-98Z" fill="#b8767c" stroke="#b8767c" stroke-width="1.51"/><path d="M-79,-192L-98,257L322,141Z" fill="#fa9354" stroke="#fa9354" stroke-width="1.51"/><path d="M553,-552L227,-431L578,-186Z" fill="#f0844d" stroke="#f0844d" stroke-width="1.51"/><path d="M2372,498L2402,137L2031,220Z" fill="#ada0a1" stroke="#ada0a1" stroke-width="1.51"/><path d="M579,1296L937,1604L1008,1184Z" fill="#b9c3bb" stroke="#b9c3bb" stroke-width="1.51"/><path d="M629,1581L937,1604L579,1296Z" fill="#afadab" stroke="#afadab" stroke-width="1.51"/><path d="M1935,1212L2300,931L2020,929Z" fill="#83b1d4" stroke="#83b1d4" stroke-width="1.51"/><path d="M2402,137L2284,-218L2031,220Z" fill="#b18b8c" stroke="#b18b8c" stroke-width="1.51"/><path d="M-79,-192L322,141L225,-187Z" fill="#f98a4f" stroke="#f98a4f" stroke-width="1.51"/><path d="M210,474L-41,871L276,832Z" fill="#f9bf9b" stroke="#f9bf9b" stroke-width="1.51"/><path d="M1935,1212L2395,1180L2300,931Z" fill="#719dca" stroke="#719dca" stroke-width="1.51"/><path d="M1374,1538L1658,1576L1708,1256Z" fill="#7fabd2" stroke="#7fabd2" stroke-width="1.51"/><path d="M937,1604L1658,1576L1374,1538Z" fill="#90a7d1" stroke="#90a7d1" stroke-width="1.51"/><path d="M-132,578L-41,871L210,474Z" fill="#fcb48a" stroke="#fcb48a" stroke-width="1.51"/><path d="M305,1563L579,1296L298,1163Z" fill="#c0a99b" stroke="#c0a99b" stroke-width="1.51"/><path d="M305,1563L629,1581L579,1296Z" fill="#b3a09c" stroke="#b3a09c" stroke-width="1.51"/><path d="M-98,257L-132,578L210,474Z" fill="#fdaf74" stroke="#fdaf74" stroke-width="1.51"/><path d="M-98,257L-404,602L-132,578Z" fill="#f6a26d" stroke="#f6a26d" stroke-width="1.51"/><path d="M227,-431L-79,-192L225,-187Z" fill="#f16f42" stroke="#f16f42" stroke-width="1.51"/><path d="M2402,137L2328,-465L2284,-218Z" fill="#ad6478" stroke="#ad6478" stroke-width="1.51"/><path d="M2284,-218L2328,-465L2009,-513Z" fill="#a95e6f" stroke="#a95e6f" stroke-width="1.51"/><path d="M2300,931L2395,1180L2372,498Z" fill="#899dcc" stroke="#899dcc" stroke-width="1.51"/><path d="M2372,498L2395,1180L2402,137Z" fill="#a1a1ba" stroke="#a1a1ba" stroke-width="1.51"/><path d="M2271,1590L2395,1180L1935,1212Z" fill="#588abf" stroke="#588abf" stroke-width="1.51"/><path d="M629,1581L-410,1561L937,1604Z" fill="#af898d" stroke="#af898d" stroke-width="1.51"/><path d="M-26,1287L305,1563L298,1163Z" fill="#c2988f" stroke="#c2988f" stroke-width="1.51"/><path d="M227,-431L-13,-511L-79,-192Z" fill="#e95938" stroke="#e95938" stroke-width="1.51"/><path d="M553,-552L-13,-511L227,-431Z" fill="#e3683f" stroke="#e3683f" stroke-width="1.51"/><path d="M1658,1576L2063,1596L1935,1212Z" fill="#6396c6" stroke="#6396c6" stroke-width="1.51"/><path d="M937,1604L2063,1596L1658,1576Z" fill="#7b9bca" stroke="#7b9bca" stroke-width="1.51"/><path d="M-41,871L-26,1287L298,1163Z" fill="#d8a494" stroke="#d8a494" stroke-width="1.51"/><path d="M-397,947L-26,1287L-41,871Z" fill="#d9978a" stroke="#d9978a" stroke-width="1.51"/><path d="M-132,578L-397,947L-41,871Z" fill="#eda08f" stroke="#eda08f" stroke-width="1.51"/><path d="M-467,134L-404,602L-98,257Z" fill="#ee905b" stroke="#ee905b" stroke-width="1.51"/><path d="M-361,-90L-98,257L-79,-192Z" fill="#ef7544" stroke="#ef7544" stroke-width="1.51"/><path d="M-474,-445L-361,-90L-79,-192Z" fill="#e04931" stroke="#e04931" stroke-width="1.51"/><path d="M2063,1596L2271,1590L1935,1212Z" fill="#5383bc" stroke="#5383bc" stroke-width="1.51"/><path d="M-361,-90L-467,134L-98,257Z" fill="#eb7946" stroke="#eb7946" stroke-width="1.51"/><path d="M-404,602L-397,947L-132,578Z" fill="#ec9a82" stroke="#ec9a82" stroke-width="1.51"/><path d="M-473,1221L-397,947L-404,602Z" fill="#d28c85" stroke="#d28c85" stroke-width="1.51"/><path d="M-410,1561L-29,1553L-26,1287Z" fill="#b06a76" stroke="#b06a76" stroke-width="1.51"/><path d="M-26,1287L-29,1553L305,1563Z" fill="#b67d82" stroke="#b67d82" stroke-width="1.51"/><path d="M305,1563L-410,1561L629,1581Z" fill="#b07882" stroke="#b07882" stroke-width="1.51"/><path d="M-13,-511L-474,-445L-79,-192Z" fill="#de412d" stroke="#de412d" stroke-width="1.51"/><path d="M-361,-90L-474,-445L-467,134Z" fill="#db5237" stroke="#db5237" stroke-width="1.51"/><path d="M-397,947L-473,1221L-26,1287Z" fill="#c7827e" stroke="#c7827e" stroke-width="1.51"/><path d="M-467,134L-473,1221L-404,602Z" fill="#e2947b" stroke="#e2947b" stroke-width="1.51"/><path d="M-474,-445L-473,1221L-467,134Z" fill="#e18759" stroke="#e18759" stroke-width="1.51"/><path d="M-473,1221L-410,1561L-26,1287Z" fill="#b46d75" stroke="#b46d75" stroke-width="1.51"/><path d="M-29,1553L-410,1561L305,1563Z" fill="#ad6576" stroke="#ad6576" stroke-width="1.51"/></svg>